# xmcd
#
# Track frame offsets:
# 150
# 14512
# 27371
# 41407
# 57653
# 72536
# 85094
# 99547
# 115457
# 127387
# 141052
# 155185
# 168895
# 183615
#
# Disc length: 2602 seconds
#
#
# Revision: 0
# Processed by: cddbd v1.5.1PL0 Copyright (c) Steve Scherf et al.
# Submitted via: FreeRIP 2.942 
#
DISCID=d10a280e
DTITLE=STELIOS KAZANTZIDIS - H ZVH MOY OLH
DYEAR=1960
DGENRE=Country
TTITLE0=KAZANTZIDIS ´60-´70 - DEN 8A KSNAGAPHSV
TTITLE1=KAZANTZIDIS ´60-´70 - AS PAN STHN EYXH TA PALIA
TTITLE2=KAZANTZIDIS ´60-´70 - NYXTERIDES KI ARAXNES
TTITLE3=KAZANTZIDIS ´60-´70 - EFYGE EFYGE
TTITLE4=KAZANTZIDIS ´60-´70 - STO SKALI TO TELEYTAIO
TTITLE5=KAZANTZIDIS ´60-´70 - PARAPONA KAI KLAMATA
TTITLE6=KAZANTZIDIS ´60-´70 - TO TRENO GERMANIAS A8HNVN
TTITLE7=KAZANTZIDIS ´60-´70 - EIDA KI EPA8A KYRA MOY
TTITLE8=KAZANTZIDIS ´60-´70 - STO TRAPEZI POY TA PINV
TTITLE9=KAZANTZIDIS ´60-´70 - H STENAXVRIA MOY
TTITLE10=KAZANTZIDIS ´60-´70 - TO DROMOLOI THS ZVHS
TTITLE11=KAZANTZIDIS ´60-´70 - ANEMVNA
TTITLE12=KAZANTZIDIS ´60-´70 - KAI SIDERENIA NA EIXA KARDIA
TTITLE13=KAZANTZIDIS ´60-´70 - STH KALYBA TH DIKH MOY
EXTD=
EXTT0=
EXTT1=
EXTT2=
EXTT3=
EXTT4=
EXTT5=
EXTT6=
EXTT7=
EXTT8=
EXTT9=
EXTT10=
EXTT11=
EXTT12=
EXTT13=
PLAYORDER=
